<svg width="34" height="35" viewBox="0 0 34 35" fill="none" xmlns="http://www.w3.org/2000/svg">
<path d="M21 23V25H7V23C7 23 7 19 14 19C21 19 21 23 21 23ZM17.5 13.5C17.5 12.8078 17.2947 12.1311 16.9101 11.5555C16.5256 10.98 15.9789 10.5314 15.3394 10.2665C14.6999 10.0016 13.9961 9.93224 13.3172 10.0673C12.6382 10.2023 12.0146 10.5357 11.5251 11.0252C11.0356 11.5146 10.7023 12.1383 10.5673 12.8172C10.4322 13.4962 10.5015 14.1999 10.7664 14.8394C11.0313 15.479 11.4799 16.0256 12.0555 16.4102C12.6311 16.7948 13.3078 17 14 17C14.9283 17 15.8185 16.6313 16.4749 15.9749C17.1313 15.3185 17.5 14.4283 17.5 13.5ZM20.94 19C21.5547 19.4758 22.0578 20.0805 22.4137 20.7715C22.7696 21.4626 22.9697 22.2233 23 23V25H27V23C27 23 27 19.37 20.94 19ZM20 10C19.3118 9.99684 18.6388 10.2026 18.07 10.59C18.6774 11.4388 19.0041 12.4563 19.0041 13.5C19.0041 14.5438 18.6774 15.5613 18.07 16.41C18.6388 16.7975 19.3118 17.0032 20 17C20.9283 17 21.8185 16.6313 22.4749 15.9749C23.1313 15.3185 23.5 14.4283 23.5 13.5C23.5 12.5718 23.1313 11.6815 22.4749 11.0252C21.8185 10.3688 20.9283 10 20 10Z" fill="#5C5C5C"/>
</svg>
