<svg width="34" height="34" viewBox="0 0 34 34" fill="none" xmlns="http://www.w3.org/2000/svg">
<path d="M7.14834 18.4841H14.7056C15.0396 18.4841 15.36 18.3514 15.5962 18.1152C15.8324 17.879 15.9651 17.5586 15.9651 17.2246V7.14821C15.9651 6.81416 15.8324 6.49379 15.5962 6.25758C15.36 6.02137 15.0396 5.88867 14.7056 5.88867H7.14834C6.81429 5.88867 6.49392 6.02137 6.25771 6.25758C6.0215 6.49379 5.88879 6.81416 5.88879 7.14821V17.2246C5.88879 17.5586 6.0215 17.879 6.25771 18.1152C6.49392 18.3514 6.81429 18.4841 7.14834 18.4841ZM5.88879 27.3009C5.88879 27.6349 6.0215 27.9553 6.25771 28.1915C6.49392 28.4277 6.81429 28.5604 7.14834 28.5604H14.7056C15.0396 28.5604 15.36 28.4277 15.5962 28.1915C15.8324 27.9553 15.9651 27.6349 15.9651 27.3009V22.2627C15.9651 21.9287 15.8324 21.6083 15.5962 21.3721C15.36 21.1359 15.0396 21.0032 14.7056 21.0032H7.14834C6.81429 21.0032 6.49392 21.1359 6.25771 21.3721C6.0215 21.6083 5.88879 21.9287 5.88879 22.2627V27.3009ZM18.4842 27.3009C18.4842 27.6349 18.6169 27.9553 18.8531 28.1915C19.0893 28.4277 19.4097 28.5604 19.7438 28.5604H27.301C27.6351 28.5604 27.9554 28.4277 28.1916 28.1915C28.4279 27.9553 28.5606 27.6349 28.5606 27.3009V18.4841C28.5606 18.15 28.4279 17.8297 28.1916 17.5935C27.9554 17.3573 27.6351 17.2246 27.301 17.2246H19.7438C19.4097 17.2246 19.0893 17.3573 18.8531 17.5935C18.6169 17.8297 18.4842 18.15 18.4842 18.4841V27.3009ZM19.7438 14.7055H27.301C27.6351 14.7055 27.9554 14.5728 28.1916 14.3366C28.4279 14.1003 28.5606 13.78 28.5606 13.4459V7.14821C28.5606 6.81416 28.4279 6.49379 28.1916 6.25758C27.9554 6.02137 27.6351 5.88867 27.301 5.88867H19.7438C19.4097 5.88867 19.0893 6.02137 18.8531 6.25758C18.6169 6.49379 18.4842 6.81416 18.4842 7.14821V13.4459C18.4842 13.78 18.6169 14.1003 18.8531 14.3366C19.0893 14.5728 19.4097 14.7055 19.7438 14.7055Z" fill="#DC143B"/>
</svg>
