<svg width="18" height="18" viewBox="0 0 18 18" fill="none" xmlns="http://www.w3.org/2000/svg">
<path d="M14.437 5.052H7.9416M10.1067 12.2691H3.61133" stroke="#E3FCF9" stroke-width="0.929966" stroke-linecap="round" stroke-linejoin="round"/>
<path d="M12.2716 14.4343C13.4674 14.4343 14.4367 13.4649 14.4367 12.2691C14.4367 11.0734 13.4674 10.104 12.2716 10.104C11.0758 10.104 10.1064 11.0734 10.1064 12.2691C10.1064 13.4649 11.0758 14.4343 12.2716 14.4343Z" fill="#E3FCF9" stroke="#E3FCF9" stroke-width="0.929966" stroke-linecap="round" stroke-linejoin="round"/>
<path d="M5.05479 7.21712C6.25056 7.21712 7.21992 6.24775 7.21992 5.05198C7.21992 3.85621 6.25056 2.88684 5.05479 2.88684C3.85901 2.88684 2.88965 3.85621 2.88965 5.05198C2.88965 6.24775 3.85901 7.21712 5.05479 7.21712Z" fill="#E3FCF9" stroke="#E3FCF9" stroke-width="0.929966" stroke-linecap="round" stroke-linejoin="round"/>
</svg>
