<svg width="18" height="18" viewBox="0 0 18 18" fill="none" xmlns="http://www.w3.org/2000/svg">
<path d="M15.925 4.33C15.925 5.7883 14.7387 6.97459 13.2804 6.97459C11.8221 6.97459 10.6358 5.7883 10.6358 4.33C10.6358 2.8717 11.8221 1.68541 13.2804 1.68541C14.7387 1.68541 15.925 2.8717 15.925 4.33ZM14.4138 8.32711C14.036 8.42534 13.6582 8.48579 13.2804 8.48579C12.1788 8.48379 11.1229 8.04531 10.344 7.26638C9.56507 6.48745 9.12659 5.43157 9.1246 4.33C9.1246 3.21927 9.56284 2.21433 10.258 1.46629C10.1209 1.2982 9.94797 1.16282 9.7519 1.07001C9.55583 0.977203 9.34152 0.929307 9.1246 0.929814C8.29344 0.929814 7.6134 1.60985 7.6134 2.44101V2.66013C5.36928 3.32506 3.83541 5.38784 3.83541 7.73019V12.2638L2.32422 13.775V14.5306H15.925V13.775L14.4138 12.2638V8.32711ZM9.1246 16.7974C9.96331 16.7974 10.6358 16.1249 10.6358 15.2862H7.6134C7.6134 15.687 7.77262 16.0713 8.05602 16.3547C8.33942 16.6381 8.7238 16.7974 9.1246 16.7974Z" fill="#E3FCF9"/>
<path d="M15.925 4.33C15.925 5.7883 14.7387 6.97459 13.2804 6.97459C11.8221 6.97459 10.6358 5.7883 10.6358 4.33C10.6358 2.8717 11.8221 1.68541 13.2804 1.68541C14.7387 1.68541 15.925 2.8717 15.925 4.33Z" fill="#E3FCF9"/>
</svg>
