<svg width="18" height="18" viewBox="0 0 18 18" fill="none" xmlns="http://www.w3.org/2000/svg">
<path d="M3.64167 9.41667H7.49167C7.66185 9.41667 7.82506 9.34906 7.94539 9.22873C8.06573 9.10839 8.13333 8.94518 8.13333 8.775V3.64167C8.13333 3.47149 8.06573 3.30828 7.94539 3.18794C7.82506 3.0676 7.66185 3 7.49167 3H3.64167C3.47149 3 3.30828 3.0676 3.18794 3.18794C3.0676 3.30828 3 3.47149 3 3.64167V8.775C3 8.94518 3.0676 9.10839 3.18794 9.22873C3.30828 9.34906 3.47149 9.41667 3.64167 9.41667ZM3 13.9083C3 14.0785 3.0676 14.2417 3.18794 14.3621C3.30828 14.4824 3.47149 14.55 3.64167 14.55H7.49167C7.66185 14.55 7.82506 14.4824 7.94539 14.3621C8.06573 14.2417 8.13333 14.0785 8.13333 13.9083V11.3417C8.13333 11.1715 8.06573 11.0083 7.94539 10.8879C7.82506 10.7676 7.66185 10.7 7.49167 10.7H3.64167C3.47149 10.7 3.30828 10.7676 3.18794 10.8879C3.0676 11.0083 3 11.1715 3 11.3417V13.9083ZM9.41667 13.9083C9.41667 14.0785 9.48427 14.2417 9.60461 14.3621C9.72494 14.4824 9.88815 14.55 10.0583 14.55H13.9083C14.0785 14.55 14.2417 14.4824 14.3621 14.3621C14.4824 14.2417 14.55 14.0785 14.55 13.9083V9.41667C14.55 9.24649 14.4824 9.08328 14.3621 8.96294C14.2417 8.8426 14.0785 8.775 13.9083 8.775H10.0583C9.88815 8.775 9.72494 8.8426 9.60461 8.96294C9.48427 9.08328 9.41667 9.24649 9.41667 9.41667V13.9083ZM10.0583 7.49167H13.9083C14.0785 7.49167 14.2417 7.42406 14.3621 7.30373C14.4824 7.18339 14.55 7.02018 14.55 6.85V3.64167C14.55 3.47149 14.4824 3.30828 14.3621 3.18794C14.2417 3.0676 14.0785 3 13.9083 3H10.0583C9.88815 3 9.72494 3.0676 9.60461 3.18794C9.48427 3.30828 9.41667 3.47149 9.41667 3.64167V6.85C9.41667 7.02018 9.48427 7.18339 9.60461 7.30373C9.72494 7.42406 9.88815 7.49167 10.0583 7.49167Z" fill="#FEFEFE"/>
</svg>
