<svg width="18" height="18" viewBox="0 0 18 18" fill="none" xmlns="http://www.w3.org/2000/svg">
<path d="M8.66 1.4436C4.67614 1.4436 1.44287 4.67688 1.44287 8.66073C1.44287 12.6446 4.67614 15.8779 8.66 15.8779C12.6439 15.8779 15.8771 12.6446 15.8771 8.66073C15.8771 4.67688 12.6439 1.4436 8.66 1.4436ZM9.38171 13.7127H7.93828V12.2693H9.38171V13.7127ZM10.8757 8.11945L10.2261 8.78342C9.70648 9.31027 9.38171 9.7433 9.38171 10.8259H7.93828V10.465C7.93828 9.67113 8.26306 8.94942 8.78269 8.42256L9.67761 7.51321C9.94465 7.25339 10.1034 6.89253 10.1034 6.49559C10.1034 5.70171 9.45388 5.05217 8.66 5.05217C7.86611 5.05217 7.21657 5.70171 7.21657 6.49559H5.77315C5.77315 4.90061 7.06501 3.60874 8.66 3.60874C10.255 3.60874 11.5468 4.90061 11.5468 6.49559C11.5468 7.1307 11.287 7.70807 10.8757 8.11945Z" fill="#E3FCF9"/>
</svg>
