<svg width="34" height="35" viewBox="0 0 34 35" fill="none" xmlns="http://www.w3.org/2000/svg">
<path d="M15.76 12.1702L22.83 19.2412L15.657 26.4152C15.325 26.7472 14.8867 26.9518 14.419 26.9932L14.243 27.0002H9.01C8.76118 27.0002 8.52111 26.9084 8.33583 26.7423C8.15055 26.5762 8.0331 26.3475 8.006 26.1002L8 25.9902V20.7572C8.00011 20.2877 8.16543 19.8331 8.467 19.4732L8.587 19.3432L15.76 12.1702ZM18.9 9.0302C19.2539 8.67625 19.7277 8.46787 20.2277 8.44621C20.7278 8.42455 21.2178 8.59118 21.601 8.9132L21.728 9.0302L25.971 13.2732C26.3247 13.6271 26.5329 14.1006 26.5545 14.6004C26.5762 15.1003 26.4097 15.5901 26.088 15.9732L25.971 16.1012L24.245 17.8272L17.175 10.7562L18.9 9.0302Z" fill="#5C5C5C"/>
</svg>
